<svg viewBox="0 0 16 16" xmlns="http://www.w3.org/2000/svg" shape-rendering="crispEdges" aria-hidden="true">
  <g fill="#3d5a7f"><rect x="5" y="3" width="5" height="2"/><rect x="3" y="5" width="9" height="1"/></g>
  <g fill="#f5cba7"><rect x="5" y="6" width="5" height="1"/><rect x="4" y="7" width="7" height="1"/><rect x="4" y="8" width="1" height="1"/><rect x="6" y="8" width="3" height="1"/><rect x="10" y="8" width="1" height="1"/><rect x="4" y="9" width="7" height="1"/><rect x="5" y="10" width="1" height="1"/><rect x="9" y="10" width="1" height="1"/></g>
  <g fill="#1d1d1f"><rect x="5" y="8" width="1" height="1"/><rect x="9" y="8" width="1" height="1"/><rect x="6" y="10" width="3" height="1"/><rect x="4" y="15" width="2" height="1"/><rect x="9" y="15" width="2" height="1"/></g>
  <g fill="#5e81ac"><rect x="3" y="11" width="9" height="1"/><rect x="4" y="12" width="7" height="1"/><rect x="4" y="13" width="7" height="1"/><rect x="4" y="14" width="3" height="1"/><rect x="8" y="14" width="3" height="1"/></g>
  <rect x="7" y="11" width="1" height="3" fill="#3d5a7f"/>
</svg>
