<svg viewBox="0 0 16 16" xmlns="http://www.w3.org/2000/svg" shape-rendering="crispEdges" aria-hidden="true">
  <rect x="7" y="0" width="1" height="2" fill="#d1d5db"/>
  <rect x="7" y="0" width="1" height="1" fill="#dc2626"/>
  <g fill="#c2410c"><rect x="4" y="2" width="7" height="1"/><rect x="3" y="3" width="9" height="1"/><rect x="3" y="4" width="1" height="3"/><rect x="11" y="4" width="1" height="3"/><rect x="3" y="7" width="9" height="1"/></g>
  <g fill="#1d1d1f"><rect x="4" y="4" width="7" height="3"/></g>
  <g fill="#67e8f9"><rect x="5" y="4" width="2" height="1"/><rect x="5" y="5" width="1" height="1"/></g>
  <rect x="5" y="8" width="5" height="1" fill="#ea580c"/>
  <g fill="#c2410c"><rect x="2" y="9" width="11" height="1"/><rect x="3" y="10" width="9" height="1"/><rect x="4" y="11" width="7" height="1"/><rect x="4" y="12" width="7" height="1"/><rect x="4" y="13" width="7" height="1"/><rect x="4" y="14" width="3" height="1"/><rect x="8" y="14" width="3" height="1"/></g>
  <rect x="5" y="12" width="5" height="1" fill="#1d1d1f"/>
  <rect x="5" y="12" width="1" height="1" fill="#dc2626"/>
  <rect x="7" y="12" width="1" height="1" fill="#facc15"/>
  <rect x="9" y="12" width="1" height="1" fill="#16a34a"/>
  <g fill="#1d1d1f"><rect x="4" y="15" width="2" height="1"/><rect x="9" y="15" width="2" height="1"/></g>
</svg>
